<svg xmlns="http://www.w3.org/2000/svg" xmlns:xlink="http://www.w3.org/1999/xlink" width="500" zoomAndPan="magnify" viewBox="0 0 375 374.999991" height="500" preserveAspectRatio="xMidYMid meet" version="1.0"><defs><filter x="0%" y="0%" width="100%" height="100%" id="998e43d87a"><feColorMatrix values="0 0 0 0 1 0 0 0 0 1 0 0 0 0 1 0 0 0 1 0" color-interpolation-filters="sRGB"/></filter><g/><clipPath id="ddbc0317a2"><path d="M 12.382812 0 L 362.632812 0 L 362.632812 305.25 L 12.382812 305.25 Z M 12.382812 0 " clip-rule="nonzero"/></clipPath><mask id="6e1557d24b"><g filter="url(#998e43d87a)"><rect x="-37.5" width="450" fill="#000000" y="-37.499999" height="449.999989" fill-opacity="0.25"/></g></mask><clipPath id="801c796275"><path d="M 0.382812 122 L 30 122 L 30 184 L 0.382812 184 Z M 0.382812 122 " clip-rule="nonzero"/></clipPath><clipPath id="9e3d6055ed"><path d="M 0.382812 219 L 350.632812 219 L 350.632812 305.25 L 0.382812 305.25 Z M 0.382812 219 " clip-rule="nonzero"/></clipPath><clipPath id="87a45954b4"><path d="M 0.382812 0 L 350.632812 0 L 350.632812 211 L 0.382812 211 Z M 0.382812 0 " clip-rule="nonzero"/></clipPath><clipPath id="11cc9f239e"><rect x="0" width="351" y="0" height="306"/></clipPath></defs><path fill="#b1bec6" d="M 297.375 111.945312 C 308.390625 111.945312 317.320312 103.027344 317.320312 92.023438 C 317.320312 81.023438 308.390625 72.105469 297.375 72.105469 C 286.363281 72.105469 277.433594 81.023438 277.433594 92.023438 C 277.433594 103.027344 286.363281 111.945312 297.375 111.945312 Z M 297.375 111.945312 " fill-opacity="0.25" fill-rule="nonzero"/><path fill="#b1bec6" d="M 240.199219 50.246094 C 244.136719 54.175781 247.636719 58.386719 250.691406 62.808594 L 250.691406 61.207031 C 250.691406 33.679688 228.347656 11.359375 200.789062 11.359375 L 66.117188 11.359375 C 59.738281 11.359375 54.398438 15.808594 53.039062 21.765625 C 52.816406 22.726562 52.703125 23.730469 52.703125 24.761719 L 52.703125 270.230469 C 52.703125 277.632812 58.707031 283.632812 66.117188 283.632812 L 237.277344 283.632812 C 237.953125 283.632812 238.617188 283.582031 239.265625 283.484375 C 245.730469 282.527344 250.691406 276.957031 250.691406 270.230469 L 250.691406 219.261719 L 233.527344 202.121094 C 231.816406 200.414062 231.816406 197.640625 233.527344 195.929688 L 234.808594 194.652344 L 227.847656 187.695312 C 192.765625 212.050781 144.210938 208.605469 112.9375 177.367188 C 77.796875 142.265625 77.796875 85.351562 112.9375 50.246094 C 148.082031 15.140625 205.058594 15.140625 240.199219 50.246094 Z M 152.445312 255.851562 L 79.601562 255.851562 C 77.734375 255.851562 76.222656 254.339844 76.222656 252.476562 C 76.222656 250.613281 77.734375 249.101562 79.601562 249.101562 L 152.445312 249.101562 C 154.3125 249.101562 155.824219 250.613281 155.824219 252.476562 C 155.824219 254.335938 154.3125 255.851562 152.445312 255.851562 Z M 220.574219 239.882812 L 79.601562 239.882812 C 77.734375 239.882812 76.222656 238.371094 76.222656 236.503906 C 76.222656 234.640625 77.734375 233.128906 79.601562 233.128906 L 220.574219 233.128906 C 222.441406 233.128906 223.953125 234.640625 223.953125 236.503906 C 223.953125 238.371094 222.441406 239.882812 220.574219 239.882812 Z M 220.574219 217.152344 C 222.441406 217.152344 223.953125 218.664062 223.953125 220.53125 C 223.953125 222.394531 222.441406 223.90625 220.574219 223.90625 L 79.601562 223.90625 C 77.734375 223.90625 76.222656 222.394531 76.222656 220.53125 C 76.222656 219.601562 76.597656 218.753906 77.210938 218.144531 C 77.820312 217.53125 78.667969 217.152344 79.601562 217.152344 Z M 129 200.4375 C 130.867188 200.4375 132.378906 201.949219 132.378906 203.8125 C 132.378906 205.679688 130.867188 207.191406 129 207.191406 L 79.601562 207.191406 C 77.734375 207.191406 76.222656 205.679688 76.222656 203.8125 C 76.222656 201.949219 77.734375 200.4375 79.601562 200.4375 Z M 97.703125 184.464844 C 99.570312 184.464844 101.082031 185.976562 101.082031 187.84375 C 101.082031 189.707031 99.570312 191.214844 97.703125 191.214844 L 79.601562 191.214844 C 77.734375 191.214844 76.222656 189.707031 76.222656 187.84375 C 76.222656 185.976562 77.734375 184.464844 79.601562 184.464844 Z M 88.625 69.109375 C 88.015625 69.722656 87.171875 70.097656 86.238281 70.097656 L 79.601562 70.097656 C 77.734375 70.097656 76.222656 68.585938 76.222656 66.726562 C 76.222656 64.863281 77.734375 63.351562 79.601562 63.351562 L 86.238281 63.351562 C 88.105469 63.351562 89.617188 64.863281 89.617188 66.726562 C 89.617188 67.65625 89.238281 68.5 88.625 69.109375 Z M 97.703125 54.128906 L 79.601562 54.128906 C 77.734375 54.128906 76.222656 52.617188 76.222656 50.75 C 76.222656 48.886719 77.734375 47.375 79.601562 47.375 L 97.703125 47.375 C 99.570312 47.375 101.082031 48.886719 101.082031 50.75 C 101.082031 52.617188 99.570312 54.128906 97.703125 54.128906 Z M 97.703125 38.152344 L 79.601562 38.152344 C 77.734375 38.152344 76.222656 36.640625 76.222656 34.777344 C 76.222656 32.910156 77.734375 31.402344 79.601562 31.402344 L 97.703125 31.402344 C 99.570312 31.402344 101.082031 32.914062 101.082031 34.777344 C 101.082031 36.636719 99.570312 38.152344 97.703125 38.152344 Z M 97.703125 38.152344 " fill-opacity="0.25" fill-rule="nonzero"/><path fill="#b1bec6" d="M 101.082031 50.753906 C 101.082031 52.617188 99.570312 54.128906 97.703125 54.128906 L 79.601562 54.128906 C 77.734375 54.128906 76.222656 52.617188 76.222656 50.753906 C 76.222656 48.886719 77.734375 47.375 79.601562 47.375 L 97.703125 47.375 C 99.570312 47.375 101.082031 48.886719 101.082031 50.753906 Z M 101.082031 50.753906 " fill-opacity="0.75" fill-rule="nonzero"/><path fill="#b1bec6" d="M 155.824219 252.476562 C 155.824219 254.339844 154.3125 255.851562 152.445312 255.851562 L 79.601562 255.851562 C 77.734375 255.851562 76.222656 254.339844 76.222656 252.476562 C 76.222656 250.613281 77.734375 249.105469 79.601562 249.105469 L 152.445312 249.105469 C 154.3125 249.105469 155.824219 250.613281 155.824219 252.476562 Z M 155.824219 252.476562 " fill-opacity="0.75" fill-rule="nonzero"/><path fill="#b1bec6" d="M 223.953125 236.507812 C 223.953125 238.375 222.441406 239.882812 220.574219 239.882812 L 79.601562 239.882812 C 77.734375 239.882812 76.222656 238.375 76.222656 236.507812 C 76.222656 234.644531 77.734375 233.132812 79.601562 233.132812 L 220.574219 233.132812 C 222.441406 233.132812 223.953125 234.644531 223.953125 236.507812 Z M 223.953125 236.507812 " fill-opacity="0.75" fill-rule="nonzero"/><path fill="#b1bec6" d="M 223.953125 220.53125 C 223.953125 222.394531 222.441406 223.90625 220.574219 223.90625 L 79.601562 223.90625 C 77.734375 223.90625 76.222656 222.394531 76.222656 220.53125 C 76.222656 219.597656 76.597656 218.753906 77.210938 218.144531 C 77.820312 217.53125 78.667969 217.152344 79.601562 217.152344 L 220.574219 217.152344 C 222.441406 217.152344 223.953125 218.664062 223.953125 220.53125 Z M 223.953125 220.53125 " fill-opacity="0.5" fill-rule="nonzero"/><path fill="#b1bec6" d="M 132.378906 203.8125 C 132.378906 205.679688 130.867188 207.191406 129 207.191406 L 79.601562 207.191406 C 77.734375 207.191406 76.222656 205.679688 76.222656 203.8125 C 76.222656 201.949219 77.734375 200.4375 79.601562 200.4375 L 129 200.4375 C 130.867188 200.4375 132.378906 201.949219 132.378906 203.8125 Z M 132.378906 203.8125 " fill-opacity="0.75" fill-rule="nonzero"/><path fill="#b1bec6" d="M 101.082031 187.84375 C 101.082031 189.707031 99.570312 191.214844 97.703125 191.214844 L 79.601562 191.214844 C 77.734375 191.214844 76.222656 189.707031 76.222656 187.84375 C 76.222656 185.976562 77.734375 184.464844 79.601562 184.464844 L 97.703125 184.464844 C 99.570312 184.464844 101.082031 185.976562 101.082031 187.84375 Z M 101.082031 187.84375 " fill-opacity="0.5" fill-rule="nonzero"/><path fill="#b1bec6" d="M 89.617188 66.726562 C 89.617188 67.65625 89.238281 68.5 88.625 69.109375 C 88.015625 69.722656 87.171875 70.097656 86.238281 70.097656 L 79.601562 70.097656 C 77.734375 70.097656 76.222656 68.585938 76.222656 66.726562 C 76.222656 64.863281 77.734375 63.351562 79.601562 63.351562 L 86.238281 63.351562 C 88.105469 63.351562 89.617188 64.863281 89.617188 66.726562 Z M 89.617188 66.726562 " fill-opacity="0.5" fill-rule="nonzero"/><path fill="#b1bec6" d="M 101.082031 34.777344 C 101.082031 36.640625 99.570312 38.152344 97.703125 38.152344 L 79.601562 38.152344 C 77.734375 38.152344 76.222656 36.640625 76.222656 34.777344 C 76.222656 32.914062 77.734375 31.40625 79.601562 31.40625 L 97.703125 31.40625 C 99.570312 31.40625 101.082031 32.914062 101.082031 34.777344 Z M 101.082031 34.777344 " fill-opacity="0.75" fill-rule="nonzero"/><path fill="#b1bec6" d="M 237.277344 284.683594 L 66.117188 284.683594 C 58.140625 284.683594 51.652344 278.203125 51.652344 270.234375 L 51.652344 24.765625 C 51.652344 23.671875 51.773438 22.585938 52.015625 21.535156 C 53.523438 14.929688 59.324219 10.3125 66.117188 10.3125 L 200.789062 10.3125 C 228.882812 10.3125 251.742188 33.144531 251.742188 61.210938 L 251.742188 66.179688 L 249.824219 63.40625 C 246.78125 58.996094 243.292969 54.820312 239.457031 50.988281 C 204.785156 16.351562 148.359375 16.351562 113.679688 50.988281 C 79.003906 85.628906 79.003906 141.988281 113.679688 176.625 C 144.15625 207.066406 191.917969 211.359375 227.25 186.835938 L 227.96875 186.335938 L 236.296875 194.652344 L 234.269531 196.671875 C 233.640625 197.300781 233.292969 198.140625 233.292969 199.027344 C 233.292969 199.917969 233.640625 200.75 234.269531 201.378906 L 251.742188 218.828125 L 251.742188 270.230469 C 251.742188 277.335938 246.445312 283.480469 239.417969 284.523438 C 238.726562 284.628906 238.003906 284.679688 237.277344 284.679688 Z M 66.117188 12.410156 C 60.308594 12.410156 55.351562 16.351562 54.058594 22 C 53.855469 22.894531 53.753906 23.824219 53.753906 24.761719 L 53.753906 270.230469 C 53.753906 277.039062 59.296875 282.582031 66.117188 282.582031 L 237.277344 282.582031 C 237.898438 282.582031 238.515625 282.535156 239.109375 282.445312 C 245.113281 281.554688 249.640625 276.304688 249.640625 270.230469 L 249.640625 219.699219 L 232.785156 202.863281 C 231.761719 201.839844 231.191406 200.476562 231.191406 199.027344 C 231.191406 197.578125 231.757812 196.214844 232.785156 195.1875 L 233.324219 194.652344 L 227.726562 189.054688 C 212.667969 199.292969 194.757812 204.746094 176.535156 204.746094 C 173.984375 204.746094 171.433594 204.644531 168.878906 204.425781 C 147.515625 202.628906 127.386719 193.277344 112.199219 178.109375 C 95.003906 160.933594 85.535156 138.097656 85.535156 113.808594 C 85.535156 89.515625 95.003906 66.679688 112.199219 49.507812 C 129.390625 32.328125 152.257812 22.871094 176.574219 22.867188 C 200.890625 22.867188 223.753906 32.328125 240.945312 49.503906 C 244.078125 52.628906 246.984375 55.984375 249.617188 59.503906 C 248.714844 33.382812 227.160156 12.410156 200.792969 12.410156 Z M 66.117188 12.410156 " fill-opacity="1" fill-rule="nonzero"/><path fill="#b1bec6" d="M 239.265625 283.484375 C 237.902344 289.441406 232.5625 293.886719 226.1875 293.886719 L 55.027344 293.886719 C 47.621094 293.886719 41.613281 287.890625 41.613281 280.488281 L 41.613281 35.019531 C 41.613281 28.292969 46.570312 22.722656 53.039062 21.765625 C 52.816406 22.726562 52.703125 23.730469 52.703125 24.761719 L 52.703125 270.230469 C 52.703125 277.632812 58.707031 283.632812 66.117188 283.632812 L 237.277344 283.632812 C 237.953125 283.632812 238.617188 283.582031 239.265625 283.484375 Z M 239.265625 283.484375 " fill-opacity="0.5" fill-rule="nonzero"/><path fill="#b1bec6" d="M 226.1875 294.9375 L 55.027344 294.9375 C 47.050781 294.9375 40.5625 288.453125 40.5625 280.484375 L 40.5625 35.019531 C 40.5625 27.914062 45.859375 21.769531 52.882812 20.726562 L 54.40625 20.503906 L 54.0625 22 C 53.855469 22.894531 53.753906 23.824219 53.753906 24.761719 L 53.753906 270.230469 C 53.753906 277.039062 59.300781 282.582031 66.121094 282.582031 L 237.28125 282.582031 C 237.902344 282.582031 238.519531 282.535156 239.113281 282.445312 L 240.636719 282.214844 L 240.292969 283.714844 C 238.78125 290.320312 232.980469 294.933594 226.191406 294.933594 Z M 51.742188 23.113281 C 46.472656 24.5625 42.660156 29.445312 42.660156 35.023438 L 42.660156 280.488281 C 42.660156 287.296875 48.207031 292.839844 55.023438 292.839844 L 226.183594 292.839844 C 231.488281 292.839844 236.085938 289.546875 237.824219 284.675781 C 237.640625 284.679688 237.453125 284.683594 237.273438 284.683594 L 66.117188 284.683594 C 58.140625 284.683594 51.652344 278.203125 51.652344 270.234375 L 51.652344 24.765625 C 51.652344 24.210938 51.683594 23.65625 51.746094 23.113281 Z M 51.742188 23.113281 " fill-opacity="1" fill-rule="nonzero"/><path fill="#b1bec6" d="M 224.550781 65.875 C 198.054688 39.410156 155.085938 39.410156 128.585938 65.878906 C 102.089844 92.351562 102.089844 135.269531 128.585938 161.730469 C 151.179688 184.300781 185.734375 187.628906 211.859375 171.722656 C 216.378906 168.96875 220.644531 165.644531 224.550781 161.738281 C 228.460938 157.832031 231.792969 153.574219 234.546875 149.058594 C 250.472656 122.964844 247.144531 88.441406 224.550781 65.875 Z M 209.5 139.90625 L 202.695312 146.703125 C 200.429688 148.964844 196.753906 148.964844 194.484375 146.703125 L 176.570312 128.804688 L 158.648438 146.703125 C 156.386719 148.964844 152.710938 148.964844 150.445312 146.703125 L 143.636719 139.90625 C 141.367188 137.640625 141.367188 133.964844 143.636719 131.703125 L 161.554688 113.8125 L 143.636719 95.910156 C 141.371094 93.644531 141.367188 89.976562 143.636719 87.710938 L 150.445312 80.910156 C 152.710938 78.644531 156.386719 78.644531 158.648438 80.910156 L 176.570312 98.8125 L 194.484375 80.910156 C 196.753906 78.644531 200.429688 78.644531 202.695312 80.910156 L 209.5 87.710938 C 211.773438 89.976562 211.769531 93.644531 209.5 95.910156 L 191.585938 113.8125 L 209.5 131.703125 C 211.773438 133.964844 211.773438 137.640625 209.5 139.90625 Z M 209.5 139.90625 " fill-opacity="0.5" fill-rule="nonzero"/><path fill="#b1bec6" d="M 176.496094 182.636719 C 173.921875 182.636719 171.34375 182.492188 168.777344 182.203125 C 153.144531 180.4375 138.988281 173.613281 127.839844 162.476562 C 114.828125 149.480469 107.660156 132.195312 107.660156 113.8125 C 107.660156 95.425781 114.824219 78.140625 127.839844 65.140625 C 140.855469 52.140625 158.160156 44.980469 176.566406 44.980469 C 194.972656 44.980469 212.277344 52.140625 225.289062 65.140625 C 236.4375 76.277344 243.265625 90.414062 245.035156 106.035156 C 246.75 121.191406 243.34375 136.664062 235.441406 149.613281 C 232.605469 154.257812 229.1875 158.589844 225.289062 162.488281 C 221.390625 166.382812 217.054688 169.792969 212.402344 172.625 C 201.636719 179.183594 189.121094 182.640625 176.492188 182.640625 Z M 176.570312 47.109375 C 159.460938 47.109375 142.355469 53.613281 129.328125 66.625 C 116.714844 79.230469 109.765625 95.984375 109.765625 113.8125 C 109.765625 131.636719 116.714844 148.390625 129.328125 160.992188 C 151.210938 182.851562 184.921875 186.898438 211.3125 170.832031 C 215.824219 168.085938 220.03125 164.777344 223.808594 161 C 227.589844 157.222656 230.898438 153.023438 233.652344 148.519531 C 249.738281 122.15625 245.691406 88.480469 223.808594 66.621094 C 210.785156 53.613281 193.675781 47.109375 176.570312 47.109375 Z M 176.570312 47.109375 " fill-opacity="1" fill-rule="nonzero"/><path fill="#b1bec6" d="M 234.542969 149.058594 C 231.792969 153.574219 228.460938 157.832031 224.546875 161.738281 C 220.640625 165.648438 216.375 168.972656 211.855469 171.722656 C 185.734375 187.628906 151.179688 184.300781 128.582031 161.734375 C 102.085938 135.269531 102.085938 92.355469 128.582031 65.878906 C 155.082031 39.410156 198.050781 39.410156 224.546875 65.875 C 247.144531 88.445312 250.472656 122.96875 234.542969 149.058594 Z M 250.6875 62.808594 C 247.632812 58.386719 244.132812 54.175781 240.199219 50.246094 C 205.058594 15.140625 148.078125 15.140625 112.933594 50.246094 C 77.792969 85.351562 77.792969 142.265625 112.933594 177.367188 C 144.207031 208.605469 192.761719 212.050781 227.84375 187.695312 C 232.1875 184.679688 236.328125 181.238281 240.199219 177.371094 C 244.070312 173.503906 247.519531 169.371094 250.535156 165.03125 C 250.585938 164.957031 250.636719 164.878906 250.6875 164.808594 C 271.84375 134.203125 271.847656 93.414062 250.6875 62.808594 Z M 250.6875 62.808594 " fill-opacity="0.75" fill-rule="nonzero"/><path fill="#b1bec6" d="M 176.53125 204.746094 C 173.984375 204.746094 171.429688 204.644531 168.875 204.425781 C 147.511719 202.628906 127.382812 193.277344 112.195312 178.109375 C 95 160.933594 85.53125 138.097656 85.53125 113.808594 C 85.53125 89.515625 95 66.679688 112.195312 49.507812 C 129.390625 32.328125 152.253906 22.871094 176.570312 22.867188 C 200.890625 22.867188 223.75 32.324219 240.945312 49.503906 C 244.871094 53.421875 248.4375 57.699219 251.554688 62.214844 C 262.058594 77.402344 267.609375 95.246094 267.609375 113.8125 C 267.609375 132.367188 262.054688 150.207031 251.558594 165.398438 C 251.507812 165.480469 251.449219 165.5625 251.386719 165.644531 C 248.3125 170.070312 244.796875 174.265625 240.941406 178.117188 C 237.089844 181.960938 232.886719 185.472656 228.441406 188.558594 C 213.234375 199.117188 195.046875 204.746094 176.527344 204.746094 Z M 176.570312 25.011719 C 153.792969 25.011719 131.019531 33.671875 113.679688 50.992188 C 79.003906 85.632812 79.003906 141.992188 113.679688 176.628906 C 144.15625 207.070312 191.917969 211.363281 227.25 186.839844 C 231.589844 183.824219 235.695312 180.390625 239.457031 176.632812 C 243.222656 172.875 246.664062 168.769531 249.675781 164.4375 C 249.730469 164.359375 249.777344 164.292969 249.820312 164.230469 L 249.828125 164.214844 C 270.667969 134.066406 270.667969 93.558594 249.828125 63.410156 C 246.78125 59 243.296875 54.820312 239.460938 50.992188 C 222.125 33.675781 199.347656 25.015625 176.578125 25.015625 Z M 176.570312 25.011719 " fill-opacity="1" fill-rule="nonzero"/><path fill="#b1bec6" d="M 257.5 171.988281 L 234.808594 194.652344 L 227.847656 187.695312 C 232.191406 184.679688 236.332031 181.238281 240.199219 177.371094 C 242.621094 174.953125 244.875 172.433594 246.960938 169.820312 C 247.382812 169.300781 247.789062 168.773438 248.195312 168.246094 C 248.800781 167.453125 249.390625 166.652344 249.964844 165.84375 C 250.160156 165.574219 250.347656 165.300781 250.535156 165.03125 Z M 257.5 171.988281 " fill-opacity="1" fill-rule="nonzero"/><path fill="#b1bec6" d="M 331.175781 256.351562 L 319.269531 268.246094 C 316.292969 271.222656 311.460938 271.222656 308.484375 268.246094 L 264.613281 224.425781 L 287.300781 201.761719 L 331.175781 245.582031 C 334.152344 248.558594 334.152344 253.378906 331.175781 256.351562 Z M 331.175781 256.351562 " fill-opacity="1" fill-rule="nonzero"/><path fill="#b1bec6" d="M 288.589844 200.476562 L 287.300781 201.757812 L 263.332031 225.699219 C 261.621094 227.410156 258.847656 227.410156 257.136719 225.699219 L 250.691406 219.261719 L 233.527344 202.121094 C 231.816406 200.414062 231.816406 197.640625 233.527344 195.929688 L 258.78125 170.707031 C 260.496094 168.996094 263.269531 168.996094 264.980469 170.707031 L 288.589844 194.285156 C 290.296875 195.992188 290.296875 198.765625 288.589844 200.476562 Z M 288.589844 200.476562 " fill-opacity="0.75" fill-rule="nonzero"/><path fill="#b1bec6" d="M 260.234375 228.035156 C 258.785156 228.035156 257.417969 227.472656 256.394531 226.441406 L 232.785156 202.863281 C 231.761719 201.839844 231.191406 200.476562 231.191406 199.027344 C 231.191406 197.578125 231.757812 196.214844 232.785156 195.1875 L 258.039062 169.964844 C 259.066406 168.9375 260.429688 168.371094 261.882812 168.371094 C 263.332031 168.371094 264.699219 168.9375 265.722656 169.964844 L 289.332031 193.546875 C 291.445312 195.660156 291.445312 199.101562 289.332031 201.21875 L 264.074219 226.441406 C 263.050781 227.46875 261.683594 228.035156 260.234375 228.035156 Z M 261.882812 170.476562 C 260.992188 170.476562 260.15625 170.820312 259.523438 171.449219 L 234.269531 196.675781 C 233.640625 197.304688 233.292969 198.140625 233.292969 199.03125 C 233.292969 199.917969 233.640625 200.753906 234.269531 201.382812 L 257.878906 224.960938 C 258.507812 225.59375 259.34375 225.9375 260.234375 225.9375 C 261.125 225.9375 261.957031 225.59375 262.589844 224.960938 L 287.84375 199.738281 C 289.140625 198.441406 289.140625 196.328125 287.84375 195.03125 L 264.238281 171.449219 C 263.609375 170.820312 262.769531 170.476562 261.882812 170.476562 Z M 261.882812 170.476562 " fill-opacity="1" fill-rule="nonzero"/><path fill="#b1bec6" d="M 209.5 139.90625 L 202.695312 146.703125 C 200.429688 148.964844 196.753906 148.964844 194.484375 146.703125 L 176.570312 128.804688 L 158.648438 146.703125 C 156.386719 148.964844 152.710938 148.964844 150.445312 146.703125 L 143.636719 139.90625 C 141.367188 137.640625 141.367188 133.964844 143.636719 131.703125 L 161.554688 113.8125 L 143.636719 95.910156 C 141.371094 93.644531 141.367188 89.976562 143.636719 87.710938 L 150.445312 80.910156 C 152.710938 78.644531 156.386719 78.644531 158.648438 80.910156 L 176.570312 98.8125 L 194.484375 80.910156 C 196.753906 78.644531 200.429688 78.644531 202.695312 80.910156 L 209.5 87.710938 C 211.773438 89.976562 211.769531 93.644531 209.5 95.910156 L 191.585938 113.8125 L 209.5 131.703125 C 211.773438 133.964844 211.773438 137.640625 209.5 139.90625 Z M 209.5 139.90625 " fill-opacity="1" fill-rule="nonzero"/><path fill="#b1bec6" d="M 290.378906 154.601562 L 296.492188 148.488281 C 297.265625 147.714844 297.265625 146.464844 296.492188 145.691406 L 294.171875 143.371094 C 293.398438 142.597656 292.144531 142.597656 291.367188 143.371094 L 285.253906 149.484375 L 279.132812 143.371094 C 278.363281 142.597656 277.105469 142.597656 276.335938 143.371094 L 274.015625 145.691406 C 273.238281 146.464844 273.238281 147.714844 274.015625 148.488281 L 280.128906 154.601562 L 274.015625 160.710938 C 273.238281 161.484375 273.238281 162.734375 274.015625 163.507812 L 276.335938 165.828125 C 277.109375 166.601562 278.363281 166.601562 279.132812 165.828125 L 285.253906 159.71875 L 291.367188 165.828125 C 292.144531 166.601562 293.398438 166.601562 294.171875 165.828125 L 296.492188 163.507812 C 297.265625 162.734375 297.265625 161.480469 296.492188 160.710938 Z M 290.378906 154.601562 " fill-opacity="0.5" fill-rule="nonzero"/><path fill="#b1bec6" d="M 273.617188 255.59375 L 276.976562 252.238281 C 277.402344 251.816406 277.40625 251.125 276.976562 250.703125 L 275.703125 249.429688 C 275.277344 249.003906 274.589844 249.003906 274.164062 249.429688 L 270.804688 252.785156 L 267.445312 249.429688 C 267.023438 249.003906 266.332031 249.003906 265.910156 249.429688 L 264.632812 250.703125 C 264.207031 251.128906 264.210938 251.816406 264.632812 252.238281 L 267.992188 255.59375 L 264.632812 258.949219 C 264.207031 259.371094 264.207031 260.0625 264.632812 260.488281 L 265.910156 261.761719 C 266.332031 262.183594 267.023438 262.183594 267.445312 261.761719 L 270.804688 258.40625 L 274.164062 261.761719 C 274.589844 262.183594 275.277344 262.183594 275.703125 261.761719 L 276.976562 260.488281 C 277.40625 260.0625 277.40625 259.375 276.976562 258.949219 Z M 273.617188 255.59375 " fill-opacity="0.5" fill-rule="nonzero"/><path fill="#b1bec6" d="M 263.871094 50.753906 L 267.230469 47.398438 C 267.652344 46.976562 267.65625 46.289062 267.230469 45.863281 L 265.953125 44.589844 C 265.53125 44.167969 264.839844 44.167969 264.417969 44.589844 L 261.058594 47.945312 L 257.699219 44.589844 C 257.277344 44.167969 256.585938 44.167969 256.160156 44.589844 L 254.886719 45.863281 C 254.460938 46.289062 254.464844 46.976562 254.886719 47.398438 L 258.246094 50.753906 L 254.886719 54.109375 C 254.460938 54.535156 254.460938 55.222656 254.886719 55.648438 L 256.160156 56.921875 C 256.585938 57.347656 257.277344 57.347656 257.699219 56.921875 L 261.058594 53.566406 L 264.417969 56.921875 C 264.839844 57.347656 265.53125 57.347656 265.953125 56.921875 L 267.230469 55.648438 C 267.65625 55.222656 267.65625 54.539062 267.230469 54.109375 Z M 263.871094 50.753906 " fill-opacity="0.5" fill-rule="nonzero"/><path fill="#b1bec6" d="M 300.191406 92.023438 L 303.550781 88.667969 C 303.972656 88.246094 303.976562 87.558594 303.550781 87.132812 L 302.277344 85.859375 C 301.851562 85.4375 301.160156 85.4375 300.738281 85.859375 L 297.378906 89.214844 L 294.019531 85.859375 C 293.597656 85.4375 292.90625 85.4375 292.484375 85.859375 L 291.207031 87.132812 C 290.78125 87.5625 290.785156 88.246094 291.207031 88.667969 L 294.566406 92.023438 L 291.207031 95.378906 C 290.78125 95.804688 290.78125 96.492188 291.207031 96.917969 L 292.484375 98.191406 C 292.90625 98.617188 293.597656 98.617188 294.019531 98.191406 L 297.378906 94.839844 L 300.738281 98.191406 C 301.160156 98.617188 301.851562 98.617188 302.277344 98.191406 L 303.550781 96.917969 C 303.976562 96.492188 303.976562 95.808594 303.550781 95.378906 Z M 300.191406 92.023438 " fill-opacity="0.5" fill-rule="nonzero"/><g clip-path="url(#ddbc0317a2)"><g mask="url(#6e1557d24b)"><g transform="matrix(1, 0, 0, 1, 12, 0)"><g clip-path="url(#11cc9f239e)"><g clip-path="url(#801c796275)"><path fill="#b1bec6" d="M 0.382812 152.628906 C 0.382812 161.054688 3.800781 168.679688 9.328125 174.199219 C 14.570312 179.429688 21.699219 182.769531 29.613281 183.105469 L 29.613281 122.148438 C 13.355469 122.835938 0.382812 136.210938 0.382812 152.628906 Z M 0.382812 152.628906 " fill-opacity="1" fill-rule="nonzero"/></g><g clip-path="url(#9e3d6055ed)"><path fill="#b1bec6" d="M 320.089844 244.15625 L 317.75 244.15625 L 319.175781 245.582031 C 322.152344 248.554688 322.152344 253.375 319.175781 256.347656 L 307.269531 268.242188 C 304.292969 271.21875 299.460938 271.21875 296.484375 268.246094 L 252.613281 224.421875 L 251.332031 225.699219 C 249.621094 227.414062 246.847656 227.414062 245.136719 225.699219 L 238.691406 219.261719 L 238.691406 270.230469 C 238.691406 276.957031 233.730469 282.527344 227.265625 283.484375 C 225.902344 289.441406 220.5625 293.890625 214.1875 293.890625 L 43.027344 293.890625 C 35.621094 293.890625 29.613281 287.890625 29.613281 280.484375 L 29.613281 244.183594 C 13.355469 244.875 0.382812 258.253906 0.382812 274.660156 C 0.382812 283.085938 3.800781 290.710938 9.328125 296.234375 C 14.859375 301.757812 22.492188 305.167969 30.925781 305.167969 L 320.085938 305.167969 C 336.953125 305.167969 350.628906 291.507812 350.628906 274.65625 C 350.628906 266.234375 347.210938 258.605469 341.683594 253.089844 C 336.15625 247.5625 328.523438 244.152344 320.089844 244.152344 Z M 264.976562 258.945312 C 265.402344 259.371094 265.402344 260.058594 264.976562 260.484375 L 263.699219 261.757812 C 263.273438 262.179688 262.585938 262.179688 262.160156 261.757812 L 258.800781 258.402344 L 255.441406 261.757812 C 255.015625 262.179688 254.328125 262.179688 253.902344 261.757812 L 252.628906 260.484375 C 252.199219 260.058594 252.199219 259.371094 252.628906 258.945312 L 255.984375 255.59375 L 252.628906 252.234375 C 252.203125 251.8125 252.199219 251.121094 252.628906 250.699219 L 253.902344 249.421875 C 254.328125 249 255.015625 249 255.441406 249.421875 L 258.800781 252.78125 L 262.160156 249.421875 C 262.585938 249 263.273438 249 263.699219 249.421875 L 264.976562 250.699219 C 265.402344 251.121094 265.402344 251.8125 264.976562 252.234375 L 261.617188 255.59375 Z M 264.976562 258.945312 " fill-opacity="1" fill-rule="nonzero"/></g><g clip-path="url(#87a45954b4)"><path fill="#b1bec6" d="M 320.089844 122.117188 L 287.335938 122.117188 C 278.902344 122.117188 271.269531 118.703125 265.742188 113.179688 C 260.210938 107.664062 256.796875 100.035156 256.796875 91.609375 C 256.796875 74.757812 270.472656 61.105469 287.339844 61.105469 L 320.09375 61.105469 C 336.960938 61.105469 350.636719 47.441406 350.636719 30.59375 C 350.636719 22.167969 347.21875 14.539062 341.691406 9.019531 C 336.160156 3.496094 328.53125 0.0859375 320.097656 0.0859375 L 30.929688 0.0859375 C 14.0625 0.078125 0.382812 13.738281 0.382812 30.589844 C 0.382812 39.015625 3.800781 46.640625 9.328125 52.160156 C 14.570312 57.394531 21.699219 60.734375 29.613281 61.070312 L 29.613281 35.019531 C 29.613281 28.292969 34.570312 22.722656 41.039062 21.765625 C 42.398438 15.808594 47.738281 11.359375 54.117188 11.359375 L 188.789062 11.359375 C 216.347656 11.359375 238.691406 33.679688 238.691406 61.207031 L 238.691406 62.808594 C 259.847656 93.417969 259.847656 134.203125 238.691406 164.808594 C 238.640625 164.878906 238.589844 164.960938 238.535156 165.03125 L 245.5 171.988281 L 246.78125 170.707031 C 248.496094 168.996094 251.269531 168.996094 252.980469 170.707031 L 276.589844 194.285156 C 278.296875 195.992188 278.296875 198.765625 276.589844 200.476562 L 275.300781 201.757812 L 284.554688 211 C 285.898438 195.390625 299.011719 183.132812 314.984375 183.132812 L 320.089844 183.132812 C 336.957031 183.132812 350.632812 169.472656 350.632812 152.628906 C 350.632812 144.203125 347.214844 136.574219 341.6875 131.054688 C 336.160156 125.53125 328.527344 122.121094 320.09375 122.121094 Z M 255.230469 54.109375 C 255.65625 54.535156 255.65625 55.222656 255.230469 55.644531 L 253.953125 56.917969 C 253.53125 57.347656 252.839844 57.347656 252.417969 56.917969 L 249.058594 53.566406 L 245.695312 56.917969 C 245.273438 57.347656 244.582031 57.347656 244.160156 56.917969 L 242.882812 55.644531 C 242.457031 55.222656 242.457031 54.535156 242.882812 54.109375 L 246.242188 50.753906 L 242.882812 47.394531 C 242.460938 46.972656 242.457031 46.289062 242.882812 45.859375 L 244.160156 44.585938 C 244.582031 44.160156 245.273438 44.160156 245.695312 44.585938 L 249.058594 47.941406 L 252.417969 44.585938 C 252.839844 44.160156 253.53125 44.160156 253.953125 44.585938 L 255.230469 45.859375 C 255.65625 46.289062 255.65625 46.972656 255.230469 47.394531 L 251.871094 50.753906 Z M 284.492188 163.507812 L 282.171875 165.828125 C 281.398438 166.601562 280.144531 166.601562 279.367188 165.828125 L 273.253906 159.71875 L 267.132812 165.828125 C 266.363281 166.601562 265.105469 166.601562 264.335938 165.828125 L 262.011719 163.507812 C 261.238281 162.734375 261.238281 161.480469 262.011719 160.707031 L 268.125 154.601562 L 262.011719 148.488281 C 261.238281 147.714844 261.238281 146.464844 262.011719 145.691406 L 264.335938 143.371094 C 265.105469 142.597656 266.363281 142.597656 267.132812 143.371094 L 273.253906 149.480469 L 279.367188 143.371094 C 280.144531 142.597656 281.398438 142.597656 282.171875 143.371094 L 284.492188 145.691406 C 285.269531 146.464844 285.265625 147.714844 284.492188 148.488281 L 278.378906 154.601562 L 284.492188 160.707031 C 285.269531 161.480469 285.269531 162.734375 284.492188 163.507812 Z M 284.492188 163.507812 " fill-opacity="1" fill-rule="nonzero"/></g></g></g></g></g><g fill="#737373" fill-opacity="1"><g transform="translate(16.390208, 366.091136)"><g><path d="M 29.453125 0 L 21.609375 0 L 8.96875 -21.984375 L 8.78125 -21.984375 C 9.039062 -18.109375 9.171875 -15.335938 9.171875 -13.671875 L 9.171875 0 L 3.65625 0 L 3.65625 -29.0625 L 11.4375 -29.0625 L 24.0625 -7.296875 L 24.203125 -7.296875 C 23.992188 -11.078125 23.890625 -13.75 23.890625 -15.3125 L 23.890625 -29.0625 L 29.453125 -29.0625 Z M 29.453125 0 "/></g></g></g><g fill="#737373" fill-opacity="1"><g transform="translate(49.49692, 366.091136)"><g><path d="M 30.046875 -14.578125 C 30.046875 -9.765625 28.851562 -6.066406 26.46875 -3.484375 C 24.082031 -0.898438 20.660156 0.390625 16.203125 0.390625 C 11.753906 0.390625 8.332031 -0.898438 5.9375 -3.484375 C 3.550781 -6.066406 2.359375 -9.773438 2.359375 -14.609375 C 2.359375 -19.453125 3.554688 -23.148438 5.953125 -25.703125 C 8.347656 -28.253906 11.78125 -29.53125 16.25 -29.53125 C 20.707031 -29.53125 24.117188 -28.242188 26.484375 -25.671875 C 28.859375 -23.097656 30.046875 -19.398438 30.046875 -14.578125 Z M 8.828125 -14.578125 C 8.828125 -11.328125 9.441406 -8.878906 10.671875 -7.234375 C 11.910156 -5.585938 13.753906 -4.765625 16.203125 -4.765625 C 21.117188 -4.765625 23.578125 -8.035156 23.578125 -14.578125 C 23.578125 -21.117188 21.132812 -24.390625 16.25 -24.390625 C 13.789062 -24.390625 11.9375 -23.5625 10.6875 -21.90625 C 9.445312 -20.257812 8.828125 -17.816406 8.828125 -14.578125 Z M 8.828125 -14.578125 "/></g></g></g><g fill="#737373" fill-opacity="1"><g transform="translate(81.90769, 366.091136)"><g/></g></g><g fill="#737373" fill-opacity="1"><g transform="translate(92.485929, 366.091136)"><g><path d="M 27.78125 -14.8125 C 27.78125 -10.03125 26.414062 -6.363281 23.6875 -3.8125 C 20.96875 -1.269531 17.035156 0 11.890625 0 L 3.65625 0 L 3.65625 -29.0625 L 12.78125 -29.0625 C 17.53125 -29.0625 21.21875 -27.804688 23.84375 -25.296875 C 26.46875 -22.796875 27.78125 -19.300781 27.78125 -14.8125 Z M 21.375 -14.65625 C 21.375 -20.894531 18.617188 -24.015625 13.109375 -24.015625 L 9.828125 -24.015625 L 9.828125 -5.09375 L 12.46875 -5.09375 C 18.40625 -5.09375 21.375 -8.28125 21.375 -14.65625 Z M 21.375 -14.65625 "/></g></g></g><g fill="#737373" fill-opacity="1"><g transform="translate(122.232244, 366.091136)"><g><path d="M 21.453125 0 L 19.34375 -6.921875 L 8.75 -6.921875 L 6.640625 0 L 0 0 L 10.265625 -29.1875 L 17.796875 -29.1875 L 28.09375 0 Z M 17.875 -12.09375 C 15.925781 -18.363281 14.828125 -21.90625 14.578125 -22.71875 C 14.335938 -23.539062 14.164062 -24.191406 14.0625 -24.671875 C 13.625 -22.972656 12.367188 -18.78125 10.296875 -12.09375 Z M 17.875 -12.09375 "/></g></g></g><g fill="#737373" fill-opacity="1"><g transform="translate(148.936292, 366.091136)"><g><path d="M 14.875 0 L 8.703125 0 L 8.703125 -23.9375 L 0.8125 -23.9375 L 0.8125 -29.0625 L 22.765625 -29.0625 L 22.765625 -23.9375 L 14.875 -23.9375 Z M 14.875 0 "/></g></g></g><g fill="#737373" fill-opacity="1"><g transform="translate(171.126687, 366.091136)"><g><path d="M 21.453125 0 L 19.34375 -6.921875 L 8.75 -6.921875 L 6.640625 0 L 0 0 L 10.265625 -29.1875 L 17.796875 -29.1875 L 28.09375 0 Z M 17.875 -12.09375 C 15.925781 -18.363281 14.828125 -21.90625 14.578125 -22.71875 C 14.335938 -23.539062 14.164062 -24.191406 14.0625 -24.671875 C 13.625 -22.972656 12.367188 -18.78125 10.296875 -12.09375 Z M 17.875 -12.09375 "/></g></g></g><g fill="#737373" fill-opacity="1"><g transform="translate(199.222655, 366.091136)"><g/></g></g><g fill="#737373" fill-opacity="1"><g transform="translate(209.800894, 366.091136)"><g><path d="M 9.71875 0 L 3.65625 0 L 3.65625 -29.0625 L 20.3125 -29.0625 L 20.3125 -24.015625 L 9.71875 -24.015625 L 9.71875 -16.515625 L 19.578125 -16.515625 L 19.578125 -11.484375 L 9.71875 -11.484375 Z M 9.71875 0 "/></g></g></g><g fill="#737373" fill-opacity="1"><g transform="translate(232.150406, 366.091136)"><g><path d="M 30.046875 -14.578125 C 30.046875 -9.765625 28.851562 -6.066406 26.46875 -3.484375 C 24.082031 -0.898438 20.660156 0.390625 16.203125 0.390625 C 11.753906 0.390625 8.332031 -0.898438 5.9375 -3.484375 C 3.550781 -6.066406 2.359375 -9.773438 2.359375 -14.609375 C 2.359375 -19.453125 3.554688 -23.148438 5.953125 -25.703125 C 8.347656 -28.253906 11.78125 -29.53125 16.25 -29.53125 C 20.707031 -29.53125 24.117188 -28.242188 26.484375 -25.671875 C 28.859375 -23.097656 30.046875 -19.398438 30.046875 -14.578125 Z M 8.828125 -14.578125 C 8.828125 -11.328125 9.441406 -8.878906 10.671875 -7.234375 C 11.910156 -5.585938 13.753906 -4.765625 16.203125 -4.765625 C 21.117188 -4.765625 23.578125 -8.035156 23.578125 -14.578125 C 23.578125 -21.117188 21.132812 -24.390625 16.25 -24.390625 C 13.789062 -24.390625 11.9375 -23.5625 10.6875 -21.90625 C 9.445312 -20.257812 8.828125 -17.816406 8.828125 -14.578125 Z M 8.828125 -14.578125 "/></g></g></g><g fill="#737373" fill-opacity="1"><g transform="translate(264.561188, 366.091136)"><g><path d="M 27.3125 -29.0625 L 27.3125 -10.265625 C 27.3125 -8.109375 26.832031 -6.222656 25.875 -4.609375 C 24.914062 -2.992188 23.523438 -1.753906 21.703125 -0.890625 C 19.890625 -0.0351562 17.742188 0.390625 15.265625 0.390625 C 11.523438 0.390625 8.617188 -0.5625 6.546875 -2.46875 C 4.484375 -4.382812 3.453125 -7.007812 3.453125 -10.34375 L 3.453125 -29.0625 L 9.609375 -29.0625 L 9.609375 -11.265625 C 9.609375 -9.023438 10.054688 -7.378906 10.953125 -6.328125 C 11.859375 -5.285156 13.347656 -4.765625 15.421875 -4.765625 C 17.441406 -4.765625 18.90625 -5.289062 19.8125 -6.34375 C 20.71875 -7.40625 21.171875 -9.0625 21.171875 -11.3125 L 21.171875 -29.0625 Z M 27.3125 -29.0625 "/></g></g></g><g fill="#737373" fill-opacity="1"><g transform="translate(295.341477, 366.091136)"><g><path d="M 29.453125 0 L 21.609375 0 L 8.96875 -21.984375 L 8.78125 -21.984375 C 9.039062 -18.109375 9.171875 -15.335938 9.171875 -13.671875 L 9.171875 0 L 3.65625 0 L 3.65625 -29.0625 L 11.4375 -29.0625 L 24.0625 -7.296875 L 24.203125 -7.296875 C 23.992188 -11.078125 23.890625 -13.75 23.890625 -15.3125 L 23.890625 -29.0625 L 29.453125 -29.0625 Z M 29.453125 0 "/></g></g></g><g fill="#737373" fill-opacity="1"><g transform="translate(328.448178, 366.091136)"><g><path d="M 27.78125 -14.8125 C 27.78125 -10.03125 26.414062 -6.363281 23.6875 -3.8125 C 20.96875 -1.269531 17.035156 0 11.890625 0 L 3.65625 0 L 3.65625 -29.0625 L 12.78125 -29.0625 C 17.53125 -29.0625 21.21875 -27.804688 23.84375 -25.296875 C 26.46875 -22.796875 27.78125 -19.300781 27.78125 -14.8125 Z M 21.375 -14.65625 C 21.375 -20.894531 18.617188 -24.015625 13.109375 -24.015625 L 9.828125 -24.015625 L 9.828125 -5.09375 L 12.46875 -5.09375 C 18.40625 -5.09375 21.375 -8.28125 21.375 -14.65625 Z M 21.375 -14.65625 "/></g></g></g></svg>